<?xml version="1.0" encoding="utf-8"?>
<!-- Svg Vector Icons : http://www.onlinewebfonts.com/icon -->
<!DOCTYPE svg PUBLIC "-//W3C//DTD SVG 1.1//EN" "http://www.w3.org/Graphics/SVG/1.1/DTD/svg11.dtd">
<svg version="1.1" xmlns="http://www.w3.org/2000/svg" xmlns:xlink="http://www.w3.org/1999/xlink" x="0px" y="0px" viewBox="0 0 256 256" enable-background="new 0 0 256 256" xml:space="preserve">
<metadata> Svg Vector Icons : http://www.onlinewebfonts.com/icon </metadata>
<g><g><g><path fill="#000000" d="M124.1,10.3c-4.8,1.3-9.1,4.8-11.3,9.3c-1.1,2.3-1.3,3.5-1.5,10.2c-0.2,5.4-0.4,7.5-0.8,7.3c-3.2-1.4-6.6-2-9.4-1.7c-8.2,0.8-14.2,7.1-15,15.4c-0.2,1.8-0.3,3.4-0.4,3.4c-0.1,0-1.4-0.5-3-1.1c-7.5-2.9-16.8,1.1-20.6,8.8l-1.3,2.6L60.6,121c-0.1,49.2,0,57.2,0.7,61.4c2,11.2,8.2,21.6,17.2,28.4c2.1,1.6,4.6,3.3,5.6,3.8l1.7,0.9v14v14l1.3,1.3c1.7,1.7,4.1,1.7,5.8,0l1.3-1.3v-12.2V219l1.7,0.4c8.5,1.8,12.1,1.8,13.8,0.1c1.7-1.6,1.7-4.1,0.1-5.7c-1-1-2-1.3-5.7-1.5c-9.4-0.7-17-4.3-23.9-11.2c-4.8-4.8-7.5-9.2-9.6-15.3l-1.4-4.2v-57.8c0-57.6,0-57.8,1.1-59.2c2.1-2.8,3.7-3.6,7.1-3.6s5,0.8,7.1,3.6c1.1,1.4,1.1,2.2,1.4,31.5l0.3,30l1.3,1c1.6,1.3,3.8,1.3,5.4,0l1.3-1l0.3-38.5c0.3-37.8,0.3-38.5,1.4-40c2.1-2.8,3.7-3.6,7.1-3.6s5,0.8,7.1,3.6c1.1,1.4,1.1,2.2,1.4,31.5l0.3,30l1.3,1c1.6,1.3,3.8,1.3,5.4,0l1.3-1l0.3-42.7c0.3-42.1,0.3-42.8,1.4-44.2c2.1-2.8,3.7-3.6,7.1-3.6s5,0.8,7.1,3.6c1.1,1.4,1.1,2.1,1.4,44.2l0.3,42.7l1.3,1c1.6,1.3,3.8,1.3,5.4,0l1.3-1l0.3-30c0.3-29.4,0.3-30.1,1.4-31.5c2.1-2.8,3.7-3.6,7.1-3.6c3.3,0,5,0.8,7.1,3.6c1.1,1.4,1.1,2,1.3,45.4l0.1,44h-1.5c-2.5,0-9.5,2.4-13.2,4.6c-4.7,2.7-11.4,9.5-14,14c-2.7,4.9-4.4,10.5-4.8,15.9c-0.4,4.3-0.3,4.5,1,5.8c2.8,2.8,7.2,0.9,7.2-3.3c0-7.1,3.4-15.1,8.8-20.3c5.2-5.3,13.3-8.8,20.3-8.8c1.1,0,2.5-0.4,3.2-1l1.3-1l0.3-22.1l0.3-22l1.3-2.6c2.4-4.9,7.9-8.9,13.2-9.6l2.1-0.3l-0.2,47.7l-0.2,47.7l-1.4,4.2c-2.1,6.1-4.8,10.5-9.6,15.3c-6.9,6.9-14.5,10.4-23.9,11.2c-3.7,0.3-4.7,0.5-5.7,1.5c-1.6,1.6-1.6,4.1,0.1,5.7c1.7,1.8,5.3,1.7,13.9-0.1l1.7-0.4v12.2v12.2l1.3,1.3c1.7,1.7,4.1,1.7,5.8,0l1.3-1.3v-14v-13.9l2.8-1.6c9.6-5.5,17.8-16.3,21.1-28c1.1-4,1.2-4.7,1.3-52.2c0.1-33.1,0-48.8-0.4-50.1c-0.8-2.6-3.4-5.1-6.1-5.6c-4.2-0.8-11.2,1.1-16.1,4.4l-2.6,1.7l-0.2-18.2c-0.2-18.2-0.2-18.3-1.5-20.9c-2.7-5.5-8-9.1-14-9.6c-3-0.2-4.9,0.2-8.8,1.7c-0.7,0.3-0.8-0.4-1.1-7.2c-0.2-6.7-0.3-7.9-1.5-10.2c-1.6-3.4-4.8-6.5-8.2-8.1C132.3,10.2,126.9,9.6,124.1,10.3z"/></g></g></g>
</svg>