<?xml version="1.0" encoding="utf-8"?>
<!-- Svg Vector Icons : http://www.onlinewebfonts.com/icon -->
<!DOCTYPE svg PUBLIC "-//W3C//DTD SVG 1.1//EN" "http://www.w3.org/Graphics/SVG/1.1/DTD/svg11.dtd">
<svg version="1.1" xmlns="http://www.w3.org/2000/svg" xmlns:xlink="http://www.w3.org/1999/xlink" x="0px" y="0px" viewBox="0 0 256 256" enable-background="new 0 0 256 256" xml:space="preserve">
<metadata> Svg Vector Icons : http://www.onlinewebfonts.com/icon </metadata>
<g><g><g><g><path fill="#000000" d="M178.2,189.3c8.5,0,17.4-2.4,23.9-8.1c6.1-5.3,9-13.5,9-21.5c0-8,0.1-15.9-0.1-23.9c-0.3-12.3,0.4-24.7-0.6-37c-2.1-24.5-7.1-49.2-19.3-70.8c-3.1-5.2-6.5-10.3-10.9-14.4c-2-1.9-4.5-3.7-7.4-3.6c-29.5,0-59.1,0-88.6,0c-2.3-0.1-4.4,0.9-6.1,2.3c-4.5,3.7-8.1,8.4-11.1,13.4C53.6,47.4,48.4,72.8,46.1,97.8c-0.7,11.2-0.1,22.5-0.4,33.7c-0.2,9.7,0,19.4-0.1,29.1c-0.1,5.3,1.2,10.6,4,15.1c6,9.5,17.8,13.8,28.7,13.6c-11.7,17.4-25,35.7-36.8,53v3.6l18,0c3.9-4.9,7-10.2,10.7-15.1h115.8l10.8,15.2l17.6,0l0-3.5L178.2,189.3z M176.2,168.5c-6-0.8-11.4-6.1-11.2-12.3c-0.5-5.9,4.2-11.4,9.8-12.7c7.3-1.9,15.4,4.2,15.3,11.8C190.9,162.8,183.5,169.4,176.2,168.5z M60,108c-0.4-4-0.1-7.9-0.2-11.9c-0.6-17,2.5-34.1,9.2-49.7c3.4-7.6,7.7-14.9,13.5-20.8c2.6-2.4,5.7-5,9.5-4.8c24.3,0,48.6,0,72.9,0c2.9-0.2,5.4,1.5,7.5,3.3c4.6,4,8.2,9.1,11.2,14.3c10.3,18.5,14.1,40.2,13.4,61.2c-0.1,3.9,0.4,8.1-1.4,11.8c-2,4.4-6.6,7.7-11.4,7.7c-37.1,0-74.2,0-111.3,0C66.6,119.2,60.9,114.1,60,108z M163.3,197.7H91.8l5.4-8.2l61.2,0L163.3,197.7z M76.4,168.3c-5-1.1-9.1-5.3-10-10.4c-1.2-6.2,3.2-12.7,9.3-14.3c7.4-2.2,15.8,4,15.9,11.7C92.2,163.2,84,170.2,76.4,168.3z M77.9,220.3c3.5-5.5,7.4-10.9,11-16.3l78.5,0c3.9,5.3,7.6,10.8,11.3,16.2L77.9,220.3z"/><path fill="#000000" d="M157.9,49.9l-13.1,0l-15.6,18.4l-15.9-18.5H100v49.3l14.5,0V70.6l14.1,16.7l14.3-16.5l0,28.4c5,0,10,0,15,0L157.9,49.9z"/></g></g><g></g><g></g><g></g><g></g><g></g><g></g><g></g><g></g><g></g><g></g><g></g><g></g><g></g><g></g><g></g></g></g>
</svg>